Coordinates
version=1
nRows=18
nColumns=19
inDegrees=yes

Units are S.I. units (second, meters, Newtons, ...)
If the header above contains a line with 'inDegrees', this indicates whether rotational values are in degrees (yes) or radians (no).

endheader
time	pelvis_tilt	pelvis_list	pelvis_rotation	pelvis_tx	pelvis_ty	pelvis_tz	hip_flexion_r	hip_adduction_r	hip_rotation_r	knee_angle_r	knee_angle_r_beta	ankle_angle_r	hip_flexion_l	hip_adduction_l	hip_rotation_l	knee_angle_l	knee_angle_l_beta	ankle_angle_l
     11.78666667	     -5.80431244	     -3.60822610	     -0.29106742	      2.21775198	      0.97697184	      0.98695192	     18.49185433	      7.29129902	     -4.69275112	      2.41374833	      0.04212786	      6.93673951	     -9.81460209	     -8.76007342	    -19.73895901	     38.37279476	      0.66973161	    -14.47887667
     11.79333333	     -5.20697891	     -4.12002354	     -0.58288550	      2.21881899	      0.97406460	      0.98810158	     17.86589800	      7.95600065	     -4.89683423	      3.81001270	      0.06649727	      6.45773539	     -9.94360875	     -9.88660887	    -20.56371416	     40.75457912	      0.71130159	    -13.62586172
     11.80000000	     -4.58327056	     -4.79891586	     -0.85610368	      2.21976529	      0.97089137	      0.98928063	     17.37047589	      8.73665004	     -5.36333535	      5.69865199	      0.09946024	      5.95968921	    -10.03449309	    -11.23802080	    -21.36877520	     43.20603140	      0.75408750	    -12.71317912
     11.80666667	     -4.66407150	     -5.41779334	     -1.22192644	      2.22031628	      0.96667397	      0.99060380	     17.95316027	      9.39748139	     -6.02021821	      8.36017640	      0.14591260	      5.75103939	     -9.19019129	    -12.58173621	    -22.02571455	     45.90031432	      0.80111161	    -11.79889742
     11.81333333	     -3.89546018	     -6.19054894	     -1.51512916	      2.22084154	      0.96321316	      0.99167583	     17.55082705	     10.16133610	     -6.61088190	     10.99378078	      0.19187767	      5.67354935	     -9.30162286	    -14.00827246	    -22.60138185	     48.35867252	      0.84401806	    -10.80628000
     11.82000000	     -4.11554260	     -6.72049976	     -1.98257277	      2.22090306	      0.95852935	      0.99294909	     18.49934744	     10.62754388	     -7.24989603	     14.27981508	      0.24922979	      5.88387995	     -8.13330406	    -15.18083550	    -22.89481434	     51.04488526	      0.89090131	     -9.70546664
     11.82666667	     -3.78554703	     -7.36676273	     -2.35820142	      2.22090819	      0.95439341	      0.99394699	     18.70845004	     11.17134368	     -7.76508993	     17.33396012	      0.30253468	      6.37074915	     -7.51792857	    -16.41222224	    -23.04372246	     53.58990515	      0.93532029	     -8.57442723
     11.83333333	     -2.89604923	     -8.16549059	     -2.67502418	      2.22083345	      0.95098572	      0.99471835	     18.12793242	     11.87021123	     -8.03290613	     20.07247111	      0.35033071	      7.12453277	     -7.47737716	    -17.68129227	    -23.02686659	     55.94854873	      0.97648639	     -7.44609948
     11.84000000	     -3.06539991	     -8.65037839	     -3.06896100	      2.22025512	      0.94661458	      0.99554072	     18.81322483	     12.22655271	     -8.31989022	     23.07285048	      0.40269721	      8.15234276	     -5.96204986	    -18.57337493	    -22.44901025	     58.48294105	      1.02071988	     -6.37316763
     11.84666667	     -2.26463118	     -9.35873235	     -3.39035230	      2.21968905	      0.94364801	      0.99612251	     18.09706072	     12.85936571	     -8.24182869	     25.42126854	      0.44368484	      9.39332418	     -5.54961160	    -19.54540332	    -21.89272462	     60.68980979	      1.05923700	     -5.32372881
     11.85333333	     -1.63419823	     -9.97045957	     -3.68029064	      2.21886265	      0.94088108	      0.99659126	     17.40328853	     13.40739135	     -8.07127380	     27.47667454	      0.47955844	     10.82811571	     -4.76539141	    -20.31357553	    -21.02131642	     62.83632949	      1.09670084	     -4.27223960
     11.86000000	     -1.96611945	    -10.43981649	     -3.89291178	      2.21776780	      0.93760144	      0.99698089	     17.69207764	     13.80531776	     -8.05684860	     29.40141630	      0.51315152	     12.25496784	     -2.56975495	    -20.78265686	    -19.30516672	     65.02332047	      1.13487103	     -3.23084175
     11.86666667	     -1.36858185	    -10.95425868	     -4.18534214	      2.21670290	      0.93585917	      0.99732515	     16.60387584	     14.32180681	     -7.59977760	     30.69771227	      0.53577615	     13.79501730	     -1.56766641	    -21.16855825	    -18.01079580	     66.78804757	      1.16567133	     -2.20411825
     11.87333333	     -1.40938655	    -11.34539716	     -4.23796463	      2.21549061	      0.93401105	      0.99746662	     16.03996951	     14.66742590	     -7.44685666	     31.61200361	      0.55173355	     15.15391419	      0.47346004	    -21.35255746	    -16.06695772	     68.54705972	      1.19637188	     -1.18723866
     11.88000000	     -1.15446053	    -11.68477768	     -4.33647956	      2.21433878	      0.93304469	      0.99765932	     14.88763455	     15.01413284	     -7.02374119	     32.07267179	      0.55977372	     16.46979607	      2.10104058	    -21.37490239	    -14.28348571	     69.96298826	      1.22108450	     -0.19503043
     11.88666667	     -1.07038445	    -11.89672696	     -4.46863949	      2.21328746	      0.93246831	      0.99789234	     13.70578539	     15.24941725	     -6.53582190	     32.17070435	      0.56148471	     17.59865512	      3.90063407	    -21.22209883	    -12.56250037	     71.13696612	      1.24157428	      0.83461714
     11.89333333	     -0.99387616	    -12.00795066	     -4.59994387	      2.21231227	      0.93243336	      0.99827383	     12.31492053	     15.41433028	     -5.93149710	     31.87012922	      0.55623869	     18.51699078	      5.65514379	    -20.96179324	    -10.97535492	     72.03379236	      1.25722685	      1.88850821
     11.90000000	     -0.95427893	    -11.87587316	     -5.01367246	      2.21140955	      0.93285256	      0.99896127	     10.82321556	     15.39589035	     -4.89255262	     31.41417748	      0.54828083	     19.29629447	      7.23393857	    -20.47043520	     -9.87729279	     72.59339711	      1.26699379	      2.86650609
